<svg width="186" height="46" viewBox="0 0 186 46" fill="none" xmlns="http://www.w3.org/2000/svg">
<path d="M56.696 34.6H57.656V41.572L57.992 42.136H58.292L59.108 41.284V38.08H60.08V40.924L60.908 42.136H61.196L61.52 41.776V34.6H62.492V42.004L61.52 43H60.44L59.696 41.896L58.652 43H57.656L56.696 41.56V34.6ZM68.8233 34.6H73.1673V35.464H69.1833L68.8113 35.86V38.08H71.5953V38.956H68.8113V41.44L69.2793 42.136H73.1673V43H68.8113L67.8513 41.56V35.596L68.8233 34.6ZM78.8986 34.6H83.5186L84.0826 35.416V36.52L82.6066 38.08H83.0866L84.2026 39.724V42.412L83.2426 43H78.8986V34.6ZM79.8586 35.464V38.08H81.3946L83.1226 36.292V35.464H79.8586ZM79.8586 38.956V42.136H83.2426V39.82L82.6306 38.956H79.8586ZM101.569 34.6H105.913V35.464H101.929L101.557 35.86V38.08H104.341V38.956H101.557V41.44L102.025 42.136H105.913V43H101.557L100.597 41.56V35.596L101.569 34.6ZM111.525 36.628H112.485V37.204L113.457 36.628H115.869L116.841 38.044V43H115.869V38.164L115.413 37.492H112.857L112.485 37.876V43H111.525V36.628ZM124.18 42.292L123.496 42.952V43.912L123.976 44.632H125.764L126.772 43.612V42.652L126.544 42.292H124.18ZM123.496 37.804V39.652H125.8L126.772 39.052V37.9L126.316 37.24H124.012L123.496 37.804ZM125.824 40.54H123.976L123.532 40.996L123.784 41.404H127.012L127.744 42.544V43.816L126.124 45.508H123.532L122.524 44.008V42.748L123.208 42.064L122.428 40.9L123.052 40.276L122.524 39.952V37.54L123.652 36.364H125.812L126.772 36.952V36.364H127.744V39.364L125.824 40.54ZM133.835 36.4H135.527L136.487 37.84V42.136H138.659V43H133.355V42.136H135.527V37.96L135.071 37.276H133.835V36.4ZM135.407 34.828H136.607V33.628H135.407V34.828ZM144.271 36.628H145.231V37.204L146.203 36.628H148.615L149.587 38.044V43H148.615V38.164L148.159 37.492H145.603L145.231 37.876V43H144.271V36.628ZM156.134 36.628H159.494L160.49 38.056L158.51 40.096H156.134V41.44L156.602 42.136H159.146L159.818 41.476L160.346 42.136L159.506 43H156.146L155.174 41.56V37.624L156.134 36.628ZM156.134 37.876V39.232H158.15L159.362 37.96L159.05 37.492H156.518L156.134 37.876ZM167.049 36.628H170.409L171.405 38.056L169.425 40.096H167.049V41.44L167.517 42.136H170.061L170.733 41.476L171.261 42.136L170.421 43H167.061L166.089 41.56V37.624L167.049 36.628ZM167.049 37.876V39.232H169.065L170.277 37.96L169.965 37.492H167.433L167.049 37.876ZM176.956 36.628H177.484L178.624 37.312L179.284 36.628H181.756L182.38 37.54L181.66 38.032L181.3 37.492H179.656L179.128 38.056V42.136H180.82V43H176.956V42.136H178.168V38.176L177.7 37.492H176.956V36.628Z" fill="#7DA8FF"/>
<line x1="57" y1="29.5" x2="183" y2="29.5" stroke="#DCE8FF" stroke-dasharray="2 2"/>
<path d="M57.896 7.2H66.584L68.504 10.08V13.968L66.584 15.912H59.816V24H57.896V7.2ZM59.84 8.928V15.336L61.784 14.208H65.84L66.584 13.44V10.344L65.648 8.928H59.84ZM74.2306 11.256H81.0226L82.9426 14.136V22.008L81.0226 24H74.2546L72.3106 21.12V13.248L74.2306 11.256ZM74.2066 20.88L75.1666 22.272H80.2546L80.9746 21.504V14.352L80.0626 12.984H74.9506L74.2066 13.776V20.88ZM86.5573 11.256H87.6133L89.8933 12.624L91.2133 11.256H96.1573L97.4053 13.08L95.9653 14.064L95.2453 12.984H91.9573L90.9013 14.112V22.272H94.2853V24H86.5573V22.272H88.9813V14.352L88.0453 12.984H86.5573V11.256ZM103.468 6.048H105.388V11.232H109.276V12.984H105.388V20.88L106.324 22.248H108.748L110.188 20.808L111.172 22.248L109.54 24H105.388L103.468 21.168V12.984H101.572V11.232H103.468V6.048ZM119.562 7.2H124.891L126.067 8.856L124.843 10.104L124.051 8.928H120.355L119.299 10.008V14.16H124.051V15.888H119.299V24H117.379V15.888H115.459V14.16H117.379V9.456L119.562 7.2ZM131.793 11.256H138.585L140.505 14.136V22.008L138.585 24H131.817L129.873 21.12V13.248L131.793 11.256ZM131.769 20.88L132.729 22.272H137.817L138.537 21.504V14.352L137.625 12.984H132.513L131.769 13.776V20.88ZM144.216 6.048H147.816L149.76 7.2V20.904L150.672 22.272H154.848L154.824 24H149.76L147.816 21.144V7.776H144.216V6.048ZM159.59 10.8H162.974L164.894 13.68V22.272H169.238V24H158.63V22.272H162.974V13.92L162.062 12.552H159.59V10.8ZM162.734 7.656H165.134V5.256H162.734V7.656ZM174.965 11.256H181.757L183.677 14.136V22.008L181.757 24H174.989L173.045 21.12V13.248L174.965 11.256ZM174.941 20.88L175.901 22.272H180.989L181.709 21.504V14.352L180.797 12.984H175.685L174.941 13.776V20.88Z" fill="#7DA8FF"/>
<path d="M8.8 8.1875C6.37313 8.1875 4.4 10.1494 4.4 12.5625V30.0625H8.8V12.5625H35.2V30.0625H39.6V12.5625C39.6 10.1494 37.6269 8.1875 35.2 8.1875H8.8ZM1.32 32.25C0.59125 32.25 0 32.8379 0 33.5625C0 36.4609 2.365 38.8125 5.28 38.8125H38.72C41.635 38.8125 44 36.4609 44 33.5625C44 32.8379 43.4087 32.25 42.68 32.25H1.32Z" fill="#7DA8FF"/>
</svg>
