<svg width="40" height="40" viewBox="0 0 40 40" fill="none" xmlns="http://www.w3.org/2000/svg">
<g clip-path="url(#clip0_2132_581)">
<path d="M26.42 14.9683H18.7733V0H26.42C30.5467 0 33.9033 3.35667 33.9033 7.48333C33.9033 11.61 30.5467 14.9683 26.42 14.9683ZM21.225 12.5167H26.42C29.195 12.5167 31.4517 10.2583 31.4517 7.485C31.4517 4.71167 29.1933 2.45333 26.42 2.45333H21.225V12.5167ZM21.225 14.9683H13.58C9.45333 14.9683 6.09667 11.6117 6.09667 7.485C6.09667 3.35833 9.45333 0 13.58 0H21.2267V14.9683H21.225ZM13.58 2.45167C10.805 2.45167 8.54833 4.71 8.54833 7.48333C8.54833 10.2567 10.805 12.5167 13.58 12.5167H18.775V2.45167H13.58ZM21.225 27.4833H13.58C9.45333 27.4833 6.09667 24.1267 6.09667 20C6.09667 15.8733 9.45333 12.5167 13.58 12.5167H21.2267V27.4833H21.225ZM13.58 14.9683C10.805 14.9683 8.54833 17.2267 8.54833 20C8.54833 22.7733 10.8067 25.0317 13.58 25.0317H18.775V14.9683H13.58ZM13.62 40C9.47167 40 6.095 36.6433 6.095 32.5167C6.095 28.39 9.45167 25.0333 13.5783 25.0333H21.225V32.435C21.225 36.6067 17.8133 40 13.62 40ZM13.58 27.4833C12.2461 27.4851 10.9673 28.0158 10.024 28.959C9.08078 29.9023 8.5501 31.1811 8.54833 32.515C8.54833 35.29 10.8233 37.5467 13.6217 37.5467C16.4633 37.5467 18.7767 35.2533 18.7767 32.4333V27.4833H13.58ZM26.42 27.4833H26.2567C22.13 27.4833 18.7733 24.1267 18.7733 20C18.7733 15.8733 22.13 12.5167 26.2567 12.5167H26.42C30.5467 12.5167 33.9033 15.8733 33.9033 20C33.9033 24.1267 30.5467 27.4833 26.42 27.4833ZM26.2583 14.9683C23.4833 14.9683 21.2267 17.2267 21.2267 20C21.2267 22.7733 23.485 25.0317 26.2583 25.0317H26.4217C29.1967 25.0317 31.4533 22.7733 31.4533 20C31.4533 17.2267 29.1933 14.9683 26.42 14.9683H26.2583Z" fill="#FD7794"/>
</g>
<defs>
<clipPath id="clip0_2132_581">
<rect width="40" height="40" fill="white"/>
</clipPath>
</defs>
</svg>
