<svg width="40" height="40" viewBox="0 0 40 40" fill="none" xmlns="http://www.w3.org/2000/svg">
<g clip-path="url(#clip0_2132_647)">
<g clip-path="url(#clip1_2132_647)">
<path d="M21.8167 39.2484C21.5783 39.4872 21.2951 39.6767 20.9834 39.806C20.6716 39.9353 20.3375 40.0019 20 40.0019C19.6625 40.0019 19.3284 39.9353 19.0166 39.806C18.7049 39.6767 18.4217 39.4872 18.1833 39.2484L0.751663 21.815C0.513049 21.5767 0.323755 21.2936 0.194604 20.982C0.0654533 20.6705 -0.00102234 20.3365 -0.00102234 19.9992C-0.00102234 19.6619 0.0654533 19.328 0.194604 19.0164C0.323755 18.7048 0.513049 18.4217 0.751663 18.1834L12.7367 6.20004L17.2917 10.755C17.0207 11.4847 17.0358 12.2898 17.3338 13.0089C17.6318 13.7279 18.1907 14.3076 18.8983 14.6317V25.7317C18.259 26.0246 17.739 26.5273 17.4248 27.1564C17.1106 27.7855 17.0209 28.5031 17.1708 29.1902C17.3207 29.8773 17.701 30.4924 18.2487 30.9335C18.7964 31.3746 19.4784 31.6151 20.1817 31.6151C20.8849 31.6151 21.567 31.3746 22.1146 30.9335C22.6623 30.4924 23.0427 29.8773 23.1925 29.1902C23.3424 28.5031 23.2528 27.7855 22.9385 27.1564C22.6243 26.5273 22.1043 26.0246 21.465 25.7317V14.9284L25.645 19.1084C25.4 19.7679 25.3879 20.4914 25.6108 21.1587C25.8336 21.826 26.278 22.3971 26.8701 22.777C27.4622 23.157 28.1665 23.3231 28.866 23.2476C29.5655 23.1722 30.2181 22.8598 30.7156 22.3623C31.2131 21.8648 31.5255 21.2122 31.6009 20.5127C31.6763 19.8132 31.5103 19.1089 31.1303 18.5168C30.7503 17.9247 30.1793 17.4803 29.512 17.2575C28.8447 17.0346 28.1212 17.0467 27.4617 17.2917L23.0717 12.9017C23.2765 12.3485 23.3183 11.7481 23.1922 11.1718C23.066 10.5955 22.7772 10.0674 22.36 9.65037C21.9427 9.2333 21.4146 8.94469 20.8382 8.81878C20.2619 8.69288 19.6615 8.73496 19.1083 8.94004L14.55 4.38338L18.1833 0.751709C18.4217 0.513095 18.7048 0.323801 19.0163 0.19465C19.3279 0.0654991 19.6619 -0.000976563 19.9992 -0.000976562C20.3364 -0.000976563 20.6704 0.0654991 20.982 0.19465C21.2936 0.323801 21.5766 0.513095 21.815 0.751709L39.2467 18.185C39.4853 18.4234 39.6746 18.7065 39.8037 19.0181C39.9329 19.3296 39.9994 19.6636 39.9994 20.0009C39.9994 20.3382 39.9329 20.6721 39.8037 20.9837C39.6746 21.2953 39.4853 21.5783 39.2467 21.8167L21.8167 39.2484Z" fill="#11A7AD"/>
</g>
</g>
<defs>
<clipPath id="clip0_2132_647">
<rect width="40" height="40" fill="white"/>
</clipPath>
<clipPath id="clip1_2132_647">
<rect width="40" height="40" fill="white"/>
</clipPath>
</defs>
</svg>
