<svg width="52" height="40" viewBox="0 0 52 40" fill="none" xmlns="http://www.w3.org/2000/svg">
<g clip-path="url(#clip0_2132_538)">
<path d="M11.2984 0.62854H19.928V24.9728C19.928 35.9449 14.7049 39.7739 6.35882 39.7739C4.31504 39.7739 1.70345 39.431 0 38.8596L0.965218 31.8306C2.15752 32.2306 3.69046 32.5164 5.3936 32.5164C9.02718 32.5164 11.2984 30.859 11.2984 24.9159V0.62854Z" fill="#407FFB"/>
<path d="M27.4207 30.2303C29.6917 31.4304 33.3254 32.6305 37.0157 32.6305C40.9901 32.6305 43.0907 30.9733 43.0907 28.4017C43.0907 26.0588 41.2739 24.6302 36.6751 23.03C30.3162 20.7441 26.115 17.201 26.115 11.5437C26.115 4.97182 31.6221 0 40.5926 0C44.9644 0 48.0868 0.857448 50.358 1.94305L48.4274 8.91486C46.9514 8.17211 44.1693 7.08619 40.4792 7.08619C36.732 7.08619 34.9151 8.85772 34.9151 10.8008C34.9151 13.2581 37.0157 14.3437 42.0121 16.2869C48.7682 18.8013 51.8908 22.3444 51.8908 27.8304C51.8908 34.2879 47.0081 39.774 36.5048 39.774C32.133 39.774 27.8179 38.5738 25.6608 37.3738L27.4207 30.2303Z" fill="#407FFB"/>
</g>
<defs>
<clipPath id="clip0_2132_538">
<rect width="51.9481" height="40" fill="white"/>
</clipPath>
</defs>
</svg>
