<svg width="40" height="40" viewBox="0 0 40 40" fill="none" xmlns="http://www.w3.org/2000/svg">
<g clip-path="url(#clip0_2132_668)">
<g clip-path="url(#clip1_2132_668)">
<path d="M2.54166 9.78332C-1.00167 14.8733 -0.561672 21.4933 2.14666 26.8983C2.20833 27.03 2.27666 27.155 2.34333 27.28C2.38166 27.3667 2.42499 27.4467 2.47166 27.53C2.49333 27.575 2.52333 27.6233 2.54999 27.6667C2.59333 27.7533 2.63999 27.8367 2.68499 27.92L2.94666 28.3633C2.99666 28.445 3.04166 28.525 3.09666 28.6067C3.18999 28.7633 3.29666 28.9183 3.39333 29.075C3.43666 29.1417 3.47666 29.205 3.52499 29.27C3.68661 29.5244 3.85898 29.7719 4.04166 30.0117C4.17166 30.19 4.30166 30.3633 4.44166 30.5367C4.48666 30.6 4.53833 30.6633 4.58499 30.7283L4.95166 31.1767C4.99833 31.2267 5.04333 31.2883 5.09166 31.3417C5.25499 31.5383 5.42833 31.73 5.60166 31.925L5.60999 31.935C5.82163 32.2019 6.05887 32.4476 6.31833 32.6683C6.45166 32.8067 6.58499 32.9433 6.72666 33.0767L6.89499 33.2383C7.07999 33.4133 7.26666 33.5867 7.46166 33.7533C7.46499 33.7533 7.46666 33.7566 7.46999 33.7583L7.56499 33.8417C7.73499 33.99 7.90666 34.1383 8.08166 34.275L8.28999 34.45C8.43166 34.5633 8.57999 34.6717 8.72333 34.7833L8.95166 34.9583C9.10666 35.075 9.27166 35.19 9.42999 35.3033C9.48833 35.345 9.54666 35.3866 9.60666 35.425L9.65666 35.4633L10.1233 35.7717L10.3233 35.905C10.57 36.0616 10.8133 36.2117 11.0567 36.3583C11.125 36.3917 11.1967 36.4317 11.2617 36.4717C11.4417 36.575 11.6283 36.68 11.81 36.7767C11.91 36.8333 12.0133 36.8817 12.1167 36.9333C12.2417 37.0033 12.3717 37.0717 12.5067 37.1417C12.5389 37.1515 12.5701 37.1643 12.6 37.18C12.655 37.205 12.7067 37.2317 12.76 37.2583C12.96 37.3583 13.1683 37.455 13.385 37.55C13.425 37.5667 13.4683 37.5833 13.5117 37.6066C13.7517 37.7116 13.9933 37.8117 14.2417 37.91C14.2983 37.9267 14.3583 37.955 14.4167 37.9766C14.6417 38.0616 14.8733 38.1483 15.1017 38.23L15.185 38.26C15.4417 38.3467 15.6933 38.43 15.9517 38.51C16.0117 38.5267 16.0733 38.5483 16.1367 38.565C16.4033 38.645 16.66 38.74 16.9267 38.7933C34.0483 41.9133 39.0233 28.4983 39.0233 28.4983C34.8433 33.9417 27.4267 35.3767 20.4 33.78C20.14 33.72 19.88 33.6367 19.6167 33.56C19.2995 33.4658 18.9844 33.3647 18.6717 33.2567L18.5683 33.2167C18.3417 33.14 18.1233 33.055 17.9017 32.97C17.8414 32.9456 17.7802 32.9233 17.7183 32.9033C17.4717 32.8033 17.235 32.7017 16.9967 32.5967C16.945 32.58 16.9017 32.5567 16.85 32.5367C16.6481 32.4439 16.447 32.3495 16.2467 32.2533C16.1866 32.2268 16.1277 32.1979 16.07 32.1667C15.9133 32.0933 15.7567 32.0083 15.6033 31.9283C15.498 31.8778 15.3941 31.8244 15.2917 31.7683C15.1017 31.6683 14.9133 31.56 14.725 31.4567C14.6683 31.4167 14.6033 31.3833 14.5383 31.3467C14.292 31.2006 14.0481 31.0506 13.8067 30.8967C13.7397 30.8555 13.6741 30.8122 13.61 30.7666C13.4331 30.6571 13.2597 30.542 13.09 30.4217C13.0317 30.3833 12.9783 30.3417 12.9183 30.3C12.7522 30.1853 12.5883 30.0675 12.4267 29.9467C12.3567 29.89 12.2817 29.8367 12.2067 29.78C12.06 29.6633 11.9117 29.555 11.765 29.4333L11.5683 29.275C11.379 29.1233 11.1929 28.9677 11.01 28.8083C10.9911 28.7892 10.9705 28.7719 10.9483 28.7567L10.37 28.23L10.2033 28.0733C10.0667 27.9333 9.92666 27.8 9.78666 27.6633L9.62333 27.4967C9.44727 27.3215 9.27555 27.142 9.10833 26.9583L9.08333 26.9317C8.90666 26.7383 8.73333 26.54 8.56166 26.34C8.51666 26.29 8.47333 26.2333 8.42833 26.1783L8.04999 25.7167C7.85781 25.4697 7.66891 25.2203 7.48333 24.9683C3.58666 19.65 2.17666 12.3067 5.29499 6.28499M13.5333 5.49665C10.9667 9.18165 11.11 14.1117 13.11 18.01C13.4405 18.6659 13.8182 19.297 14.24 19.8983C14.6233 20.4483 15.0467 21.1 15.5617 21.545C15.74 21.7483 15.9333 21.945 16.135 22.145L16.285 22.295C16.475 22.4783 16.6717 22.6567 16.8683 22.8367L16.895 22.8583C17.1198 23.0545 17.3499 23.2446 17.585 23.4283C17.6417 23.4667 17.69 23.5117 17.745 23.55C17.9783 23.73 18.215 23.9033 18.4583 24.0767L18.4833 24.0917C18.5867 24.1667 18.6967 24.235 18.8133 24.3083C18.86 24.3383 18.9133 24.3783 18.9633 24.4083C19.14 24.5217 19.3133 24.6283 19.4933 24.7367C19.5217 24.7483 19.5467 24.7633 19.5733 24.775C19.7233 24.8667 19.8867 24.955 20.0433 25.0367C20.0983 25.07 20.1517 25.095 20.21 25.1267C20.32 25.1817 20.43 25.24 20.5383 25.2967L20.5917 25.32C20.8167 25.4317 21.0467 25.535 21.2717 25.6367C21.3283 25.66 21.3767 25.6783 21.425 25.7017C21.61 25.7817 21.7983 25.8583 21.985 25.93C22.0683 25.9583 22.1467 25.9917 22.225 26.0167C22.395 26.08 22.575 26.1383 22.7417 26.1967L22.975 26.2717C23.22 26.3467 23.4667 26.445 23.7233 26.4883C36.94 28.6767 40 18.4967 40 18.4967C37.245 22.4633 31.9133 24.3517 26.2317 22.8767C25.9802 22.8117 25.7306 22.7394 25.4833 22.66C25.4033 22.6367 25.3333 22.6117 25.2567 22.5883C25.0833 22.5283 24.905 22.4717 24.7367 22.4067L24.4967 22.3167C24.3083 22.2417 24.1183 22.1717 23.9367 22.0917C23.88 22.0667 23.8283 22.05 23.785 22.025C23.5517 21.92 23.3167 21.8167 23.0883 21.705L22.745 21.5267L22.5467 21.4267C22.3972 21.3473 22.25 21.2639 22.105 21.1767C22.0695 21.1592 22.035 21.1397 22.0017 21.1183C21.825 21.0083 21.64 20.9017 21.4717 20.7883C21.415 20.7567 21.3633 20.7183 21.31 20.685L20.9633 20.4583C20.7233 20.2917 20.4883 20.1117 20.25 19.9367C20.1967 19.8883 20.145 19.8483 20.0933 19.805C17.595 17.8417 15.625 15.155 14.69 12.1167C13.7067 8.95499 13.9233 5.41165 15.6233 2.53332M22.7767 2.28832C21.2617 4.51165 21.1167 7.27165 22.16 9.72165C23.2683 12.3267 25.5333 14.3717 28.1733 15.3383C28.2817 15.38 28.3867 15.415 28.5 15.455L28.6467 15.5C28.8 15.55 28.955 15.605 29.1133 15.64C36.415 17.0483 38.3917 11.89 38.9233 11.1333C37.185 13.63 34.27 14.2283 30.6933 13.3583C30.4019 13.2855 30.1148 13.1964 29.8333 13.0917C29.4828 12.9687 29.139 12.8274 28.8033 12.6683C28.168 12.361 27.564 11.9926 27 11.5683C23.7967 9.13999 21.8117 4.50832 23.9017 0.734985" fill="#716DDD"/>
</g>
</g>
<defs>
<clipPath id="clip0_2132_668">
<rect width="40" height="40" fill="white"/>
</clipPath>
<clipPath id="clip1_2132_668">
<rect width="40" height="40" fill="white"/>
</clipPath>
</defs>
</svg>
