<svg width="40" height="40" viewBox="0 0 40 40" fill="none" xmlns="http://www.w3.org/2000/svg">
<g clip-path="url(#clip0_2132_623)">
<path d="M23.7167 17.8167C23.7167 18.8048 23.3243 19.7524 22.6257 20.4512C21.9272 21.1501 20.9798 21.5429 19.9917 21.5433C19.0033 21.5433 18.0554 21.1507 17.3565 20.4518C16.6576 19.7529 16.265 18.805 16.265 17.8167C16.265 16.8286 16.6574 15.8809 17.3559 15.1821C18.0545 14.4833 19.0019 14.0904 19.99 14.09C20.9784 14.09 21.9263 14.4826 22.6252 15.1815C23.324 15.8804 23.7167 16.8283 23.7167 17.8167ZM28.13 0C25.8867 0 22.9517 1.6 19.9833 4.37C17.0167 1.615 14.08 0.0333333 11.8383 0.0333333C11.155 0.0333333 10.5333 0.188333 9.995 0.496667C7.70333 1.81833 7.19 5.93667 8.37333 11.105C3.3 12.6717 0 15.1767 0 17.8167C0 20.4667 3.31667 22.9783 8.405 24.5333C7.23167 29.7217 7.755 33.8467 10.0517 35.1667C10.585 35.4783 11.2017 35.625 11.8883 35.625C14.13 35.625 17.0667 34.025 20.035 31.2517C23.0017 34.0083 25.9383 35.59 28.18 35.59C28.8633 35.59 29.485 35.44 30.0233 35.1317C32.3133 33.8117 32.8283 29.6933 31.645 24.5233C36.7 22.97 40 20.46 40 17.8167C40 15.1667 36.6833 12.655 31.595 11.0967C32.7683 5.91333 32.245 1.785 29.9483 0.463333C29.4183 0.156667 28.8033 0.00166667 28.13 0ZM28.1217 1.81667V1.82667C28.4967 1.82667 28.7983 1.9 29.0517 2.03833C30.1617 2.675 30.6433 5.09667 30.2683 8.21167C30.1783 8.97833 30.0317 9.78667 29.8517 10.6117C28.2517 10.2183 26.5083 9.91667 24.6733 9.72167C23.5733 8.21333 22.4317 6.84333 21.2817 5.64333C23.935 3.17667 26.4267 1.82333 28.1233 1.81833L28.1217 1.81667ZM11.8383 1.85C13.525 1.85 16.0283 3.19667 18.6883 5.65C17.545 6.85 16.405 8.21167 15.3217 9.72C13.4767 9.915 11.7317 10.2167 10.1333 10.6167C9.94667 9.8 9.80833 9.01 9.71 8.25C9.32667 5.13667 9.8 2.71667 10.9 2.07167C11.2167 1.92167 11.5667 1.85833 11.8383 1.85ZM19.975 6.93333C20.7333 7.71333 21.4917 8.58667 22.2417 9.54C21.5083 9.50667 20.7583 9.48333 20 9.48333C19.2333 9.48333 18.475 9.5 17.7333 9.54C18.4667 8.58667 19.225 7.715 19.975 6.93333ZM20 11.31C21.2333 11.31 22.4617 11.3667 23.67 11.465C24.3467 12.435 25.0067 13.47 25.6417 14.565C26.2617 15.6317 26.825 16.715 27.3383 17.8083C26.825 18.9 26.2617 19.9917 25.65 21.0583C25.0167 22.1583 24.3617 23.205 23.6833 24.175C22.47 24.28 21.24 24.3383 20 24.3383C18.7667 24.3383 17.5383 24.28 16.33 24.1833C15.6533 23.2133 14.9933 22.1767 14.3583 21.0833C13.7383 20.0167 13.175 18.9333 12.6617 17.84C13.1667 16.745 13.7383 15.6517 14.35 14.5833C14.9833 13.4833 15.6383 12.44 16.3167 11.47C17.53 11.3633 18.76 11.3067 20 11.3067V11.31ZM13.9417 11.7333C13.5417 12.3617 13.1417 13.005 12.7683 13.6667C12.3933 14.3167 12.0433 14.97 11.71 15.6233C11.2683 14.53 10.8933 13.44 10.5833 12.3783C11.65 12.1283 12.775 11.905 13.9417 11.7333ZM26.0417 11.7333C27.2 11.905 28.3167 12.1167 29.385 12.3783C29.085 13.4317 28.71 14.515 28.285 15.6C27.9517 14.95 27.6017 14.295 27.2183 13.6433C26.8433 12.99 26.4433 12.3533 26.0433 11.7333H26.0417ZM31.1467 12.8583C31.9533 13.1083 32.72 13.3867 33.4383 13.6883C36.325 14.9217 38.1917 16.535 38.1917 17.815C38.1833 19.095 36.3167 20.715 33.43 21.94C32.73 22.24 31.9633 22.51 31.1717 22.7617C30.705 21.165 30.095 19.5017 29.3383 17.795C30.0883 16.1 30.6883 14.445 31.1467 12.855V12.8583ZM8.82167 12.865C9.285 14.465 9.89667 16.1267 10.655 17.8317C9.905 19.5267 9.30167 21.1817 8.845 22.7717C8.03833 22.5217 7.27167 22.2417 6.56167 21.9383C3.675 20.71 1.80833 19.095 1.80833 17.815C1.80833 16.535 3.675 14.9117 6.56167 13.6883C7.26167 13.3883 8.02833 13.1183 8.82167 12.865ZM28.285 19.9983C28.7267 21.0933 29.1017 22.185 29.4117 23.245C28.345 23.5067 27.2183 23.7283 26.0517 23.895C26.4517 23.27 26.8517 22.625 27.2267 21.965C27.6017 21.315 27.95 20.6517 28.285 19.9983ZM11.71 20.0317C12.0433 20.685 12.3933 21.3367 12.7767 21.99C13.16 22.64 13.5517 23.2767 13.9517 23.895C12.7933 23.725 11.6767 23.5117 10.6083 23.2517C10.9083 22.2017 11.285 21.115 11.7083 20.03L11.71 20.0317ZM29.8667 25.01C30.0533 25.8317 30.2 26.6233 30.29 27.3817C30.6733 30.495 30.2 32.915 29.1 33.5617C28.855 33.7117 28.5367 33.775 28.1617 33.775C26.475 33.775 23.9717 32.43 21.3117 29.975C22.455 28.775 23.595 27.415 24.6783 25.9083C26.5233 25.7117 28.2683 25.41 29.8667 25.01ZM10.15 25.0267C11.75 25.4167 13.4933 25.7183 15.3283 25.9133C16.4283 27.4217 17.57 28.7917 18.72 29.99C16.0617 32.4617 13.5667 33.815 11.87 33.815C11.5033 33.8067 11.1933 33.7317 10.9483 33.595C9.83833 32.9617 9.35667 30.5383 9.73167 27.4233C9.82167 26.6567 9.97 25.85 10.15 25.0267ZM17.75 26.0933C18.4833 26.1267 19.2333 26.15 19.9917 26.15C20.7583 26.15 21.5167 26.1333 22.2583 26.0933C21.525 27.0467 20.7667 27.9183 20.0167 28.7017C19.2583 27.9183 18.5 27.0467 17.75 26.0933Z" fill="#FDC20E"/>
</g>
<defs>
<clipPath id="clip0_2132_623">
<rect width="40" height="40" fill="white"/>
</clipPath>
</defs>
</svg>
