<svg width="34" height="40" viewBox="0 0 34 40" fill="none" xmlns="http://www.w3.org/2000/svg">
<g clip-path="url(#clip0_2132_597)">
<path d="M33.5791 5.0749C33.1924 3.5284 32.097 2.23965 30.4216 1.33752C27.1353 -0.402287 21.8515 -0.466724 17.0186 1.27309C14.119 2.30409 8.64177 4.62383 4.51778 8.42565C0.393778 12.2919 -0.250595 15.7071 0.0715921 17.0603C0.780404 20.7976 4.71109 23.4396 7.80409 25.6304C8.64178 26.2104 9.41502 26.7259 9.99496 27.2414C8.25515 28.1435 3.55121 30.7854 2.26246 33.5563C1.2959 35.7471 1.74696 37.3581 2.13359 38.0669C2.52021 38.9046 3.16459 39.5489 3.80896 39.7423C4.45334 39.9356 5.16215 40 5.87096 40C8.64178 40 11.3481 38.5179 13.0235 36.0049C14.6989 33.4918 14.8278 30.1411 14.0545 28.0791C15.15 27.8213 16.3098 27.8213 17.5986 27.9502C20.1116 28.2724 21.336 29.2389 21.9159 30.0122C22.5603 30.8499 22.6891 31.6876 22.6247 32.2031C22.4958 33.1696 21.7226 33.7496 21.336 34.0073C21.0138 34.2006 20.756 34.3939 20.8205 34.7806C20.9493 35.2961 21.4648 35.2316 21.6581 35.2316C22.2381 35.1028 24.3001 34.0718 24.429 31.752C24.4934 30.3344 23.9135 28.9168 22.818 27.7569C21.4004 26.2748 19.274 25.5016 16.8253 25.566C15.0211 25.566 13.7968 25.7593 12.8302 26.0815L12.7658 26.0171C11.8636 25.0505 10.6393 24.1484 9.5439 23.2463C6.9664 21.3131 4.58221 19.4445 4.71109 16.6736C4.9044 13.194 8.31959 9.77883 14.9566 6.49252C20.8205 3.59284 25.5888 3.46396 28.1019 4.36609C29.1329 4.75271 29.8417 5.26821 30.0995 5.84815C30.615 6.94358 30.4216 8.36121 29.5195 9.90771C28.0375 12.4852 24.3001 15.7071 18.5651 16.3515C15.0855 16.7381 13.6035 15.1916 13.539 15.1271C13.1524 14.6761 12.8946 14.4183 12.4436 14.6761C11.9281 14.9338 12.1858 15.6426 12.3147 15.9004C12.5725 16.6092 13.6679 17.8335 15.5366 18.4779C17.0186 18.9934 20.8205 19.3156 25.5244 17.5113C30.9371 15.3205 34.6745 9.52108 33.5791 5.0749ZM11.3481 32.5253C11.2837 32.6541 11.2837 32.783 11.2193 32.9119C11.1548 33.0408 11.0904 33.1696 11.0904 33.2985C10.8326 33.8784 10.446 34.4584 9.93052 34.9739C8.44846 36.5848 6.4509 37.0359 5.80653 36.6493C5.61321 36.5204 5.54878 36.3271 5.48434 36.0693C5.35546 35.2961 5.80653 33.7496 7.15971 32.3964C8.77065 30.721 11.026 29.4967 11.5415 29.239C11.7348 30.3988 11.6703 31.4943 11.3481 32.5253Z" fill="#6BBC73"/>
</g>
<defs>
<clipPath id="clip0_2132_597">
<rect width="33.8983" height="40" fill="white"/>
</clipPath>
</defs>
</svg>
