<svg width="186" height="58" viewBox="0 0 186 58" fill="none" xmlns="http://www.w3.org/2000/svg">
<path d="M56.696 40.6H57.656V47.572L57.992 48.136H58.292L59.108 47.284V44.08H60.08V46.924L60.908 48.136H61.196L61.52 47.776V40.6H62.492V48.004L61.52 49H60.44L59.696 47.896L58.652 49H57.656L56.696 47.56V40.6ZM68.8233 40.6H73.1673V41.464H69.1833L68.8113 41.86V44.08H71.5953V44.956H68.8113V47.44L69.2793 48.136H73.1673V49H68.8113L67.8513 47.56V41.596L68.8233 40.6ZM78.8986 40.6H83.5186L84.0826 41.416V42.52L82.6066 44.08H83.0866L84.2026 45.724V48.412L83.2426 49H78.8986V40.6ZM79.8586 41.464V44.08H81.3946L83.1226 42.292V41.464H79.8586ZM79.8586 44.956V48.136H83.2426V45.82L82.6306 44.956H79.8586ZM101.569 40.6H105.913V41.464H101.929L101.557 41.86V44.08H104.341V44.956H101.557V47.44L102.025 48.136H105.913V49H101.557L100.597 47.56V41.596L101.569 40.6ZM111.525 42.628H112.485V43.204L113.457 42.628H115.869L116.841 44.044V49H115.869V44.164L115.413 43.492H112.857L112.485 43.876V49H111.525V42.628ZM124.18 48.292L123.496 48.952V49.912L123.976 50.632H125.764L126.772 49.612V48.652L126.544 48.292H124.18ZM123.496 43.804V45.652H125.8L126.772 45.052V43.9L126.316 43.24H124.012L123.496 43.804ZM125.824 46.54H123.976L123.532 46.996L123.784 47.404H127.012L127.744 48.544V49.816L126.124 51.508H123.532L122.524 50.008V48.748L123.208 48.064L122.428 46.9L123.052 46.276L122.524 45.952V43.54L123.652 42.364H125.812L126.772 42.952V42.364H127.744V45.364L125.824 46.54ZM133.835 42.4H135.527L136.487 43.84V48.136H138.659V49H133.355V48.136H135.527V43.96L135.071 43.276H133.835V42.4ZM135.407 40.828H136.607V39.628H135.407V40.828ZM144.271 42.628H145.231V43.204L146.203 42.628H148.615L149.587 44.044V49H148.615V44.164L148.159 43.492H145.603L145.231 43.876V49H144.271V42.628ZM156.134 42.628H159.494L160.49 44.056L158.51 46.096H156.134V47.44L156.602 48.136H159.146L159.818 47.476L160.346 48.136L159.506 49H156.146L155.174 47.56V43.624L156.134 42.628ZM156.134 43.876V45.232H158.15L159.362 43.96L159.05 43.492H156.518L156.134 43.876ZM167.049 42.628H170.409L171.405 44.056L169.425 46.096H167.049V47.44L167.517 48.136H170.061L170.733 47.476L171.261 48.136L170.421 49H167.061L166.089 47.56V43.624L167.049 42.628ZM167.049 43.876V45.232H169.065L170.277 43.96L169.965 43.492H167.433L167.049 43.876ZM176.956 42.628H177.484L178.624 43.312L179.284 42.628H181.756L182.38 43.54L181.66 44.032L181.3 43.492H179.656L179.128 44.056V48.136H180.82V49H176.956V48.136H178.168V44.176L177.7 43.492H176.956V42.628Z" fill="white"/>
<line x1="57" y1="35.5" x2="183" y2="35.5" stroke="white" stroke-dasharray="2 2"/>
<path d="M57.896 13.2H66.584L68.504 16.08V19.968L66.584 21.912H59.816V30H57.896V13.2ZM59.84 14.928V21.336L61.784 20.208H65.84L66.584 19.44V16.344L65.648 14.928H59.84ZM74.2306 17.256H81.0226L82.9426 20.136V28.008L81.0226 30H74.2546L72.3106 27.12V19.248L74.2306 17.256ZM74.2066 26.88L75.1666 28.272H80.2546L80.9746 27.504V20.352L80.0626 18.984H74.9506L74.2066 19.776V26.88ZM86.5573 17.256H87.6133L89.8933 18.624L91.2133 17.256H96.1573L97.4053 19.08L95.9653 20.064L95.2453 18.984H91.9573L90.9013 20.112V28.272H94.2853V30H86.5573V28.272H88.9813V20.352L88.0453 18.984H86.5573V17.256ZM103.468 12.048H105.388V17.232H109.276V18.984H105.388V26.88L106.324 28.248H108.748L110.188 26.808L111.172 28.248L109.54 30H105.388L103.468 27.168V18.984H101.572V17.232H103.468V12.048ZM119.562 13.2H124.891L126.067 14.856L124.843 16.104L124.051 14.928H120.355L119.299 16.008V20.16H124.051V21.888H119.299V30H117.379V21.888H115.459V20.16H117.379V15.456L119.562 13.2ZM131.793 17.256H138.585L140.505 20.136V28.008L138.585 30H131.817L129.873 27.12V19.248L131.793 17.256ZM131.769 26.88L132.729 28.272H137.817L138.537 27.504V20.352L137.625 18.984H132.513L131.769 19.776V26.88ZM144.216 12.048H147.816L149.76 13.2V26.904L150.672 28.272H154.848L154.824 30H149.76L147.816 27.144V13.776H144.216V12.048ZM159.59 16.8H162.974L164.894 19.68V28.272H169.238V30H158.63V28.272H162.974V19.92L162.062 18.552H159.59V16.8ZM162.734 13.656H165.134V11.256H162.734V13.656ZM174.965 17.256H181.757L183.677 20.136V28.008L181.757 30H174.989L173.045 27.12V19.248L174.965 17.256ZM174.941 26.88L175.901 28.272H180.989L181.709 27.504V20.352L180.797 18.984H175.685L174.941 19.776V26.88Z" fill="white"/>
<path d="M8.8 14.1875C6.37313 14.1875 4.4 16.1494 4.4 18.5625V36.0625H8.8V18.5625H35.2V36.0625H39.6V18.5625C39.6 16.1494 37.6269 14.1875 35.2 14.1875H8.8ZM1.32 38.25C0.59125 38.25 0 38.8379 0 39.5625C0 42.4609 2.365 44.8125 5.28 44.8125H38.72C41.635 44.8125 44 42.4609 44 39.5625C44 38.8379 43.4088 38.25 42.68 38.25H1.32Z" fill="white"/>
</svg>
